<?xml version="1.0" encoding="UTF-8" standalone="no"?>
<!-- Created with Inkscape (http://www.inkscape.org/) -->

<svg
   xmlns:dc="http://purl.org/dc/elements/1.1/"
   xmlns:cc="http://creativecommons.org/ns#"
   xmlns:rdf="http://www.w3.org/1999/02/22-rdf-syntax-ns#"
   xmlns:svg="http://www.w3.org/2000/svg"
   xmlns="http://www.w3.org/2000/svg"
   xmlns:sodipodi="http://sodipodi.sourceforge.net/DTD/sodipodi-0.dtd"
   xmlns:inkscape="http://www.inkscape.org/namespaces/inkscape"
   width="80"
   height="80"
   id="svg2"
   version="1.1"
   inkscape:version="0.92.4 (5da689c313, 2019-01-14)"
   sodipodi:docname="logo-maskable.svg"
   inkscape:export-filename="/home/drom/work/github/wavedrom/wavedrom.github.io/images/logo-128-maskable.png"
   inkscape:export-xdpi="153.60001"
   inkscape:export-ydpi="153.60001">
  <defs
     id="defs4" />
  <sodipodi:namedview
     id="base"
     pagecolor="#ffffff"
     bordercolor="#666666"
     borderopacity="1.0"
     inkscape:pageopacity="0.0"
     inkscape:pageshadow="2"
     inkscape:zoom="6.7882251"
     inkscape:cx="-6.2432947"
     inkscape:cy="42.498941"
     inkscape:document-units="px"
     inkscape:current-layer="layer1"
     showgrid="true"
     showguides="true"
     inkscape:guide-bbox="true"
     inkscape:window-width="1920"
     inkscape:window-height="997"
     inkscape:window-x="0"
     inkscape:window-y="0"
     inkscape:window-maximized="1"
     inkscape:snap-bbox="true"
     inkscape:snap-bbox-midpoints="true">
    <inkscape:grid
       type="xygrid"
       id="grid2985"
       empspacing="5"
       visible="true"
       enabled="true"
       snapvisiblegridlinesonly="true" />
  </sodipodi:namedview>
  <metadata
     id="metadata7">
    <rdf:RDF>
      <cc:Work
         rdf:about="">
        <dc:format>image/svg+xml</dc:format>
        <dc:type
           rdf:resource="http://purl.org/dc/dcmitype/StillImage" />
        <dc:title />
      </cc:Work>
    </rdf:RDF>
  </metadata>
  <g
     inkscape:label="Layer 1"
     inkscape:groupmode="layer"
     id="layer1"
     transform="translate(0,-972.3622)">
    <g
       id="g834"
       transform="translate(3.902875,-6.27199)">
      <path
         id="path4881-8-5"
         d="m 20.8,1019.9142 v 2.5 h 5.03125 l -4.375,4.375 a 0.50005,0.50005 0 1 0 0.6875,0.7187 l 5.09375,-5.0937 h 3.59375 l -8.375,8.375 a 0.50005,0.50005 0 1 0 0.6875,0.7187 l 9.09375,-9.0937 h 3.59375 l -12.375,12.375 a 0.50005,0.50005 0 1 0 0.6875,0.7187 l 12.84375,-12.8437 0.8125,2.7812 -13.34375,13.3438 a 0.50005,0.50005 0 1 0 0.6875,0.7187 l 12.96875,-12.9687 0.84375,2.75 -10.625,10.625 H 23.8 v 2.5 h 14 a 1.250125,1.250125 0 0 0 1.1875,-0.9063 l 5.71875,-19.0937 H 52.8 v -2.5 h -9 a 1.250125,1.250125 0 0 0 -0.25,0 1.250125,1.250125 0 0 0 -0.9375,0.875 l -1.8125,6.0312 -1.8125,-6.0312 a 1.250125,1.250125 0 0 0 -1.1875,-0.875 z m 18.46875,10.4687 0.21875,0.75 -1.09375,3.7188 -5.0625,5.0625 H 29.7375 Z m -1.5,6.5 -0.90625,3.0313 h -2.125 z"
         style="color:#000000;font-style:normal;font-variant:normal;font-weight:normal;font-stretch:normal;font-size:medium;line-height:normal;font-family:Sans;-inkscape-font-specification:Sans;text-indent:0;text-align:start;text-decoration:none;text-decoration-line:none;letter-spacing:normal;word-spacing:normal;text-transform:none;writing-mode:lr-tb;direction:ltr;baseline-shift:baseline;text-anchor:start;display:inline;overflow:visible;visibility:visible;fill:#e1e1e1;fill-opacity:1;stroke:none;stroke-width:2.5;marker:none;enable-background:accumulate"
         inkscape:connector-curvature="0" />
      <path
         sodipodi:nodetypes="cccccccccccccccccccccc"
         inkscape:connector-curvature="0"
         id="path4879-5-2"
         d="m 27.55,994.9081 c -0.567391,0.1158 -1.011627,0.6711 -1,1.25 v 4.7813 l -2.9375,8.8125 -0.53125,1.6563 H 24.8 26.55 v 3.5 H 20.8 v 2.5 h 7 c 0.654481,-10e-5 1.249935,-0.5956 1.25,-1.25 v -4.75 h 1.75 1.71875 l -0.53125,-1.6563 -2.9375,-8.8125 v -3.5313 H 47.8 v -2.5 h -20 c -0.08305,-0.01 -0.166946,-0.01 -0.25,0 z"
         style="color:#000000;font-style:normal;font-variant:normal;font-weight:normal;font-stretch:normal;font-size:medium;line-height:normal;font-family:Sans;-inkscape-font-specification:Sans;text-indent:0;text-align:start;text-decoration:none;text-decoration-line:none;letter-spacing:normal;word-spacing:normal;text-transform:none;writing-mode:lr-tb;direction:ltr;baseline-shift:baseline;text-anchor:start;display:inline;overflow:visible;visibility:visible;fill:#e1e1e1;fill-opacity:1;stroke:none;stroke-width:2.5;marker:none;enable-background:accumulate" />
      <path
         id="path4881-8"
         d="m 21.2,1020.3172 v 2.5 h 5.03125 l -4.375,4.375 a 0.50005,0.50005 0 1 0 0.6875,0.7187 l 5.09375,-5.0937 h 3.59375 l -8.375,8.375 a 0.50005,0.50005 0 1 0 0.6875,0.7187 l 9.09375,-9.0937 h 3.59375 l -12.375,12.375 a 0.50005,0.50005 0 1 0 0.6875,0.7187 l 12.84375,-12.8437 0.8125,2.7812 -13.34375,13.3438 a 0.50005,0.50005 0 1 0 0.6875,0.7187 l 12.96875,-12.9687 0.84375,2.75 -10.625,10.625 H 24.2 v 2.5 h 14 a 1.250125,1.250125 0 0 0 1.1875,-0.9063 l 5.71875,-19.0937 H 53.2 v -2.5 h -9 a 1.250125,1.250125 0 0 0 -0.25,0 1.250125,1.250125 0 0 0 -0.9375,0.875 l -1.8125,6.0312 -1.8125,-6.0312 a 1.250125,1.250125 0 0 0 -1.1875,-0.875 z m 18.46875,10.4687 0.21875,0.75 -1.09375,3.7188 -5.0625,5.0625 H 30.1375 Z m -1.5,6.5 -0.90625,3.0313 h -2.125 z"
         style="color:#000000;font-style:normal;font-variant:normal;font-weight:normal;font-stretch:normal;font-size:medium;line-height:normal;font-family:Sans;-inkscape-font-specification:Sans;text-indent:0;text-align:start;text-decoration:none;text-decoration-line:none;letter-spacing:normal;word-spacing:normal;text-transform:none;writing-mode:lr-tb;direction:ltr;baseline-shift:baseline;text-anchor:start;display:inline;overflow:visible;visibility:visible;fill:#e1e1e1;fill-opacity:1;stroke:none;stroke-width:2.5;marker:none;enable-background:accumulate"
         inkscape:connector-curvature="0" />
      <path
         sodipodi:nodetypes="cccccccccccccccccccccc"
         inkscape:connector-curvature="0"
         id="path4879-5"
         d="m 27.95,995.3191 c -0.567391,0.1158 -1.011627,0.6711 -1,1.25 v 4.7813 l -2.9375,8.8125 -0.53125,1.6563 H 25.2 26.95 v 3.5 H 21.2 v 2.5 h 7 c 0.654481,-10e-5 1.249935,-0.5956 1.25,-1.25 v -4.75 h 1.75 1.71875 l -0.53125,-1.6563 -2.9375,-8.8125 v -3.5313 H 48.2 v -2.5 h -20 c -0.08305,-0.01 -0.166946,-0.01 -0.25,0 z"
         style="color:#000000;font-style:normal;font-variant:normal;font-weight:normal;font-stretch:normal;font-size:medium;line-height:normal;font-family:Sans;-inkscape-font-specification:Sans;text-indent:0;text-align:start;text-decoration:none;text-decoration-line:none;letter-spacing:normal;word-spacing:normal;text-transform:none;writing-mode:lr-tb;direction:ltr;baseline-shift:baseline;text-anchor:start;display:inline;overflow:visible;visibility:visible;fill:#e1e1e1;fill-opacity:1;stroke:none;stroke-width:2.5;marker:none;enable-background:accumulate" />
      <path
         sodipodi:nodetypes="cccccccccccccccccccccc"
         inkscape:connector-curvature="0"
         id="path4879"
         d="m 27.75,995.1122 c -0.567391,0.11574 -1.011627,0.67104 -1,1.25 v 4.7813 l -2.9375,8.8125 -0.53125,1.6562 H 25 26.75 v 3.5 H 21 v 2.5 h 7 c 0.654481,-10e-5 1.249935,-0.5955 1.25,-1.25 v -4.75 H 31 32.71875 l -0.53125,-1.6562 -2.9375,-8.8125 v -3.5313 H 48 v -2.5 H 28 c -0.08305,-0.008 -0.166946,-0.008 -0.25,0 z"
         style="color:#000000;font-style:normal;font-variant:normal;font-weight:normal;font-stretch:normal;font-size:medium;line-height:normal;font-family:Sans;-inkscape-font-specification:Sans;text-indent:0;text-align:start;text-decoration:none;text-decoration-line:none;letter-spacing:normal;word-spacing:normal;text-transform:none;writing-mode:lr-tb;direction:ltr;baseline-shift:baseline;text-anchor:start;display:inline;overflow:visible;visibility:visible;fill:#3c3c3c;fill-opacity:1;stroke:none;stroke-width:2.5;marker:none;enable-background:accumulate" />
      <path
         inkscape:connector-curvature="0"
         id="path4881"
         d="m 21,1020.1122 v 2.5 h 5.03125 l -4.375,4.375 a 0.50005,0.50005 0 1 0 0.6875,0.7188 l 5.09375,-5.0938 h 3.59375 l -8.375,8.375 a 0.50005,0.50005 0 1 0 0.6875,0.7188 l 9.09375,-9.0938 h 3.59375 l -12.375,12.375 a 0.50005,0.50005 0 1 0 0.6875,0.7188 l 12.84375,-12.8438 0.8125,2.7813 -13.34375,13.3437 a 0.50005,0.50005 0 1 0 0.6875,0.7188 l 12.96875,-12.9688 0.84375,2.75 -10.625,10.625 H 24 v 2.5 h 14 a 1.250125,1.250125 0 0 0 1.1875,-0.9062 l 5.71875,-19.0938 H 53 v -2.5 h -9 a 1.250125,1.250125 0 0 0 -0.25,0 1.250125,1.250125 0 0 0 -0.9375,0.875 L 41,1027.0185 39.1875,1020.9872 A 1.250125,1.250125 0 0 0 38,1020.1122 Z m 18.46875,10.4688 0.21875,0.75 -1.09375,3.7187 -5.0625,5.0625 H 29.9375 Z m -1.5,6.5 -0.90625,3.0312 h -2.125 z"
         style="color:#000000;font-style:normal;font-variant:normal;font-weight:normal;font-stretch:normal;font-size:medium;line-height:normal;font-family:Sans;-inkscape-font-specification:Sans;text-indent:0;text-align:start;text-decoration:none;text-decoration-line:none;letter-spacing:normal;word-spacing:normal;text-transform:none;writing-mode:lr-tb;direction:ltr;baseline-shift:baseline;text-anchor:start;display:inline;overflow:visible;visibility:visible;fill:#3c3c3c;fill-opacity:1;stroke:none;stroke-width:2.5;marker:none;enable-background:accumulate" />
      <g
         transform="translate(8,-6)"
         id="text4927"
         style="font-style:normal;font-weight:normal;font-size:40px;line-height:125%;font-family:'Bitstream Vera Sans';letter-spacing:0px;word-spacing:0px;fill:#004855;fill-opacity:1;stroke:none">
        <path
           inkscape:connector-curvature="0"
           id="path2996"
           style="font-variant:normal;font-stretch:normal;font-size:56px;line-height:125%;font-family:'Nimbus Sans L Condensed';-inkscape-font-specification:'Nimbus Sans L Condensed,';text-align:start;writing-mode:lr-tb;text-anchor:start;fill:#004855"
           d="m 1.904,1026.2582 c 1.0639989,0.168 1.4560006,0.392 2.016,1.12 1.0639989,1.4 1.68,3.584 1.68,6.16 v 9.576 c 0,4.088 2.0160027,7.224 4.704,7.224 h 3.08 v -3.64 h -2.016 c -1.3999986,0 -2.128,-1.568 -2.128,-4.592 v -9.464 c 0,-3.752 -1.5680026,-6.832 -4.144,-8.064 2.4079976,-1.064 4.144,-4.312 4.144,-7.896 v -9.52 c 0,-3.024 0.7280014,-4.592 2.128,-4.592 h 2.016 v -3.64002 h -3.08 c -2.6879973,0 -4.704,3.13602 -4.704,7.22402 v 9.632 c 0,2.464 -0.5600011,4.592 -1.624,5.992 -0.5599994,0.728 -1.0080011,0.952 -2.072,1.12 v 3.36" />
        <path
           inkscape:connector-curvature="0"
           id="path2998"
           style="font-variant:normal;font-stretch:normal;font-size:56px;line-height:125%;font-family:'Nimbus Sans L Condensed';-inkscape-font-specification:'Nimbus Sans L Condensed,';text-align:start;writing-mode:lr-tb;text-anchor:start;fill:#004855"
           d="m 54.29025,1022.8982 c -1.063999,-0.168 -1.512001,-0.392 -2.072,-1.12 -1.063999,-1.4 -1.624,-3.472 -1.624,-5.992 v -9.632 c 0,-4.088 -2.016003,-7.22402 -4.704,-7.22402 h -3.08 v 3.64002 h 2.016 c 1.399999,0 2.128,1.568 2.128,4.592 v 9.52 c 0,3.584 1.736002,6.832 4.144,7.896 -2.575997,1.232 -4.144,4.312 -4.144,8.064 v 9.464 c 0,2.968 -0.728001,4.592 -2.128,4.592 h -2.016 v 3.64 h 3.08 c 2.687997,0 4.704,-3.136 4.704,-7.224 v -9.576 c 0,-2.632 0.560001,-4.76 1.68,-6.16 0.559999,-0.728 0.952001,-0.952 2.016,-1.12 v -3.36" />
      </g>
    </g>
  </g>
</svg>
